Untitled.ufo
<glyph name="exclam" format="1">
  <advance width="256"/>
  <unicode hex="0021"/>
  <outline>
    <contour>
      <point x="0" y="0" type="line" smooth="no"/>
      <point x="0" y="128" type="line" smooth="no"/>
      <point x="128" y="128" type="line" smooth="no"/>
      <point x="128" y="0" type="line" smooth="no"/>
    </contour>
    <contour>
      <point x="0" y="256" type="line" smooth="no"/>
      <point x="0" y="1152" type="line" smooth="no"/>
      <point x="128" y="1152" type="line" smooth="no"/>
      <point x="128" y="256" type="line" smooth="no"/>
    </contour>
  </outline>
</glyph>
<glyph name="percent" format="1">
  <advance width="1024"/>
  <unicode hex="0025"/>
  <outline>
    <contour>
      <point x="91" y="128" type="line" smooth="no"/>
      <point x="0" y="219" type="line" smooth="no"/>
      <point x="805" y="1024" type="line" smooth="no"/>
      <point x="896" y="933" type="line" smooth="no"/>
    </contour>
    <contour>
      <point x="165" y="640" type="line" smooth="no"/>
      <point x="0" y="805" type="line" smooth="no"/>
      <point x="0" y="859" type="line" smooth="no"/>
      <point x="165" y="1024" type="line" smooth="no"/>
      <point x="219" y="1024" type="line" smooth="no"/>
      <point x="384" y="859" type="line" smooth="no"/>
      <point x="384" y="805" type="line" smooth="no"/>
      <point x="219" y="640" type="line" smooth="no"/>
    </contour>
    <contour>
      <point x="192" y="795" type="line" smooth="no"/>
      <point x="229" y="832" type="line" smooth="no"/>
      <point x="192" y="869" type="line" smooth="no"/>
      <point x="155" y="832" type="line" smooth="no"/>
    </contour>
    <contour>
      <point x="677" y="128" type="line" smooth="no"/>
      <point x="512" y="293" type="line" smooth="no"/>
      <point x="512" y="347" type="line" smooth="no"/>
      <point x="677" y="512" type="line" smooth="no"/>
      <point x="731" y="512" type="line" smooth="no"/>
      <point x="896" y="347" type="line" smooth="no"/>
      <point x="896" y="293" type="line" smooth="no"/>
      <point x="731" y="128" type="line" smooth="no"/>
    </contour>
    <contour>
      <point x="704" y="283" type="line" smooth="no"/>
      <point x="741" y="320" type="line" smooth="no"/>
      <point x="704" y="357" type="line" smooth="no"/>
      <point x="667" y="320" type="line" smooth="no"/>
    </contour>
  </outline>
</glyph>
<glyph name="one" format="1">
  <advance width="384"/>
  <unicode hex="0031"/>
  <outline>
    <contour>
      <point x="128" y="0" type="line" smooth="no"/>
      <point x="128" y="896" type="line" smooth="no"/>
      <point x="0" y="896" type="line" smooth="no"/>
      <point x="0" y="1024" type="line" smooth="no"/>
      <point x="128" y="1024" type="line" smooth="no"/>
      <point x="128" y="1152" type="line" smooth="no"/>
      <point x="256" y="1152" type="line" smooth="no"/>
      <point x="256" y="0" type="line" smooth="no"/>
    </contour>
  </outline>
</glyph>
<glyph name="three" format="1">
  <advance width="768"/>
  <unicode hex="0033"/>
  <outline>
    <contour>
      <point x="165" y="0" type="line" smooth="no"/>
      <point x="0" y="165" type="line" smooth="no"/>
      <point x="91" y="256" type="line" smooth="no"/>
      <point x="219" y="128" type="line" smooth="no"/>
      <point x="421" y="128" type="line" smooth="no"/>
      <point x="512" y="219" type="line" smooth="no"/>
      <point x="512" y="421" type="line" smooth="no"/>
      <point x="421" y="512" type="line" smooth="no"/>
      <point x="256" y="512" type="line" smooth="no"/>
      <point x="256" y="640" type="line" smooth="no"/>
      <point x="421" y="640" type="line" smooth="no"/>
      <point x="512" y="731" type="line" smooth="no"/>
      <point x="512" y="933" type="line" smooth="no"/>
      <point x="421" y="1024" type="line" smooth="no"/>
      <point x="219" y="1024" type="line" smooth="no"/>
      <point x="91" y="896" type="line" smooth="no"/>
      <point x="0" y="987" type="line" smooth="no"/>
      <point x="165" y="1152" type="line" smooth="no"/>
      <point x="475" y="1152" type="line" smooth="no"/>
      <point x="640" y="987" type="line" smooth="no"/>
      <point x="640" y="677" type="line" smooth="no"/>
      <point x="539" y="576" type="line" smooth="no"/>
      <point x="640" y="475" type="line" smooth="no"/>
      <point x="640" y="165" type="line" smooth="no"/>
      <point x="475" y="0" type="line" smooth="no"/>
    </contour>
  </outline>
</glyph>
<glyph name="less" format="1">
  <advance width="640"/>
  <unicode hex="003c"/>
  <outline>
    <contour>
      <point x="421" y="0" type="line" smooth="no"/>
      <point x="-27" y="448" type="line" smooth="no"/>
      <point x="421" y="896" type="line" smooth="no"/>
      <point x="512" y="805" type="line" smooth="no"/>
      <point x="155" y="448" type="line" smooth="no"/>
      <point x="512" y="91" type="line" smooth="no"/>
    </contour>
  </outline>
</glyph>
<glyph name="greater" format="1">
  <advance width="640"/>
  <unicode hex="003e"/>
  <outline>
    <contour>
      <point x="91" y="0" type="line" smooth="no"/>
      <point x="0" y="91" type="line" smooth="no"/>
      <point x="357" y="448" type="line" smooth="no"/>
      <point x="0" y="805" type="line" smooth="no"/>
      <point x="91" y="896" type="line" smooth="no"/>
      <point x="539" y="448" type="line" smooth="no"/>
    </contour>
  </outline>
</glyph>
<glyph name="at" format="1">
  <advance width="1280"/>
  <unicode hex="0040"/>
  <outline>
    <contour>
      <point x="293" y="0" type="line" smooth="no"/>
      <point x="0" y="293" type="line" smooth="no"/>
      <point x="0" y="987" type="line" smooth="no"/>
      <point x="293" y="1280" type="line" smooth="no"/>
      <point x="859" y="1280" type="line" smooth="no"/>
      <point x="1152" y="987" type="line" smooth="no"/>
      <point x="1152" y="256" type="line" smooth="no"/>
      <point x="421" y="256" type="line" smooth="no"/>
      <point x="256" y="421" type="line" smooth="no"/>
      <point x="256" y="603" type="line" smooth="no"/>
      <point x="421" y="768" type="line" smooth="no"/>
      <point x="768" y="768" type="line" smooth="no"/>
      <point x="768" y="805" type="line" smooth="no"/>
      <point x="677" y="896" type="line" smooth="no"/>
      <point x="475" y="896" type="line" smooth="no"/>
      <point x="347" y="768" type="line" smooth="no"/>
      <point x="256" y="859" type="line" smooth="no"/>
      <point x="421" y="1024" type="line" smooth="no"/>
      <point x="731" y="1024" type="line" smooth="no"/>
      <point x="896" y="859" type="line" smooth="no"/>
      <point x="896" y="384" type="line" smooth="no"/>
      <point x="1024" y="384" type="line" smooth="no"/>
      <point x="1024" y="933" type="line" smooth="no"/>
      <point x="805" y="1152" type="line" smooth="no"/>
      <point x="347" y="1152" type="line" smooth="no"/>
      <point x="128" y="933" type="line" smooth="no"/>
      <point x="128" y="347" type="line" smooth="no"/>
      <point x="347" y="128" type="line" smooth="no"/>
      <point x="768" y="128" type="line" smooth="no"/>
      <point x="768" y="0" type="line" smooth="no"/>
    </contour>
    <contour>
      <point x="475" y="384" type="line" smooth="no"/>
      <point x="768" y="384" type="line" smooth="no"/>
      <point x="768" y="640" type="line" smooth="no"/>
      <point x="475" y="640" type="line" smooth="no"/>
      <point x="384" y="549" type="line" smooth="no"/>
      <point x="384" y="475" type="line" smooth="no"/>
    </contour>
  </outline>
</glyph>
<glyph name="C" format="1">
  <advance width="896"/>
  <unicode hex="0043"/>
  <outline>
    <contour>
      <point x="293" y="0" type="line" smooth="no"/>
      <point x="0" y="293" type="line" smooth="no"/>
      <point x="0" y="859" type="line" smooth="no"/>
      <point x="293" y="1152" type="line" smooth="no"/>
      <point x="603" y="1152" type="line" smooth="no"/>
      <point x="768" y="987" type="line" smooth="no"/>
      <point x="677" y="896" type="line" smooth="no"/>
      <point x="549" y="1024" type="line" smooth="no"/>
      <point x="347" y="1024" type="line" smooth="no"/>
      <point x="128" y="805" type="line" smooth="no"/>
      <point x="128" y="347" type="line" smooth="no"/>
      <point x="347" y="128" type="line" smooth="no"/>
      <point x="549" y="128" type="line" smooth="no"/>
      <point x="677" y="256" type="line" smooth="no"/>
      <point x="768" y="165" type="line" smooth="no"/>
      <point x="603" y="0" type="line" smooth="no"/>
    </contour>
  </outline>
</glyph>
<glyph name="D" format="1">
  <advance width="896"/>
  <unicode hex="0044"/>
  <outline>
    <contour>
      <point x="0" y="0" type="line" smooth="no"/>
      <point x="0" y="1152" type="line" smooth="no"/>
      <point x="475" y="1152" type="line" smooth="no"/>
      <point x="768" y="859" type="line" smooth="no"/>
      <point x="768" y="293" type="line" smooth="no"/>
      <point x="475" y="0" type="line" smooth="no"/>
    </contour>
    <contour>
      <point x="128" y="128" type="line" smooth="no"/>
      <point x="421" y="128" type="line" smooth="no"/>
      <point x="640" y="347" type="line" smooth="no"/>
      <point x="640" y="805" type="line" smooth="no"/>
      <point x="421" y="1024" type="line" smooth="no"/>
      <point x="128" y="1024" type="line" smooth="no"/>
    </contour>
  </outline>
</glyph>
<glyph name="F" format="1">
  <advance width="768"/>
  <unicode hex="0046"/>
  <outline>
    <contour>
      <point x="0" y="0" type="line" smooth="no"/>
      <point x="0" y="1152" type="line" smooth="no"/>
      <point x="640" y="1152" type="line" smooth="no"/>
      <point x="640" y="1024" type="line" smooth="no"/>
      <point x="128" y="1024" type="line" smooth="no"/>
      <point x="128" y="640" type="line" smooth="no"/>
      <point x="512" y="640" type="line" smooth="no"/>
      <point x="512" y="512" type="line" smooth="no"/>
      <point x="128" y="512" type="line" smooth="no"/>
      <point x="128" y="0" type="line" smooth="no"/>
    </contour>
  </outline>
</glyph>
<glyph name="R" format="1">
  <advance width="896"/>
  <unicode hex="0052"/>
  <outline>
    <contour>
      <point x="0" y="0" type="line" smooth="no"/>
      <point x="0" y="1152" type="line" smooth="no"/>
      <point x="603" y="1152" type="line" smooth="no"/>
      <point x="768" y="987" type="line" smooth="no"/>
      <point x="768" y="677" type="line" smooth="no"/>
      <point x="667" y="576" type="line" smooth="no"/>
      <point x="768" y="475" type="line" smooth="no"/>
      <point x="768" y="0" type="line" smooth="no"/>
      <point x="640" y="0" type="line" smooth="no"/>
      <point x="640" y="421" type="line" smooth="no"/>
      <point x="549" y="512" type="line" smooth="no"/>
      <point x="128" y="512" type="line" smooth="no"/>
      <point x="128" y="0" type="line" smooth="no"/>
    </contour>
    <contour>
      <point x="128" y="640" type="line" smooth="no"/>
      <point x="549" y="640" type="line" smooth="no"/>
      <point x="640" y="731" type="line" smooth="no"/>
      <point x="640" y="933" type="line" smooth="no"/>
      <point x="549" y="1024" type="line" smooth="no"/>
      <point x="128" y="1024" type="line" smooth="no"/>
    </contour>
  </outline>
</glyph>
<glyph name="W" format="1">
  <advance width="768"/>
  <unicode hex="0057"/>
  <outline>
    <contour>
      <point x="0" y="0" type="line" smooth="no"/>
      <point x="0" y="1152" type="line" smooth="no"/>
      <point x="128" y="1152" type="line" smooth="no"/>
      <point x="128" y="219" type="line" smooth="no"/>
      <point x="320" y="411" type="line" smooth="no"/>
      <point x="512" y="219" type="line" smooth="no"/>
      <point x="512" y="1152" type="line" smooth="no"/>
      <point x="640" y="1152" type="line" smooth="no"/>
      <point x="640" y="0" type="line" smooth="no"/>
      <point x="549" y="0" type="line" smooth="no"/>
      <point x="320" y="229" type="line" smooth="no"/>
      <point x="91" y="0" type="line" smooth="no"/>
    </contour>
  </outline>
</glyph>
<glyph name="bracketleft" format="1">
  <advance width="512"/>
  <unicode hex="005b"/>
  <outline>
    <contour>
      <point x="0" y="-256" type="line" smooth="no"/>
      <point x="0" y="1152" type="line" smooth="no"/>
      <point x="384" y="1152" type="line" smooth="no"/>
      <point x="384" y="1024" type="line" smooth="no"/>
      <point x="128" y="1024" type="line" smooth="no"/>
      <point x="128" y="-128" type="line" smooth="no"/>
      <point x="384" y="-128" type="line" smooth="no"/>
      <point x="384" y="-256" type="line" smooth="no"/>
    </contour>
  </outline>
</glyph>
<glyph name="bracketright" format="1">
  <advance width="512"/>
  <unicode hex="005d"/>
  <outline>
    <contour>
      <point x="0" y="-256" type="line" smooth="no"/>
      <point x="0" y="-128" type="line" smooth="no"/>
      <point x="256" y="-128" type="line" smooth="no"/>
      <point x="256" y="1024" type="line" smooth="no"/>
      <point x="0" y="1024" type="line" smooth="no"/>
      <point x="0" y="1152" type="line" smooth="no"/>
      <point x="384" y="1152" type="line" smooth="no"/>
      <point x="384" y="-256" type="line" smooth="no"/>
    </contour>
  </outline>
</glyph>
<glyph name="asciicircum" format="1">
  <advance width="512"/>
  <unicode hex="005e"/>
  <outline>
    <contour>
      <point x="91" y="896" type="line" smooth="no"/>
      <point x="0" y="987" type="line" smooth="no"/>
      <point x="192" y="1179" type="line" smooth="no"/>
      <point x="384" y="987" type="line" smooth="no"/>
      <point x="293" y="896" type="line" smooth="no"/>
      <point x="192" y="997" type="line" smooth="no"/>
    </contour>
  </outline>
</glyph>
<glyph name="k" format="1">
  <advance width="768"/>
  <unicode hex="006b"/>
  <outline>
    <contour>
      <point x="0" y="0" type="line" smooth="no"/>
      <point x="0" y="1152" type="line" smooth="no"/>
      <point x="128" y="1152" type="line" smooth="no"/>
      <point x="128" y="512" type="line" smooth="no"/>
      <point x="165" y="512" type="line" smooth="no"/>
      <point x="421" y="768" type="line" smooth="no"/>
      <point x="512" y="677" type="line" smooth="no"/>
      <point x="283" y="448" type="line" smooth="no"/>
      <point x="640" y="91" type="line" smooth="no"/>
      <point x="549" y="0" type="line" smooth="no"/>
      <point x="165" y="384" type="line" smooth="no"/>
      <point x="128" y="384" type="line" smooth="no"/>
      <point x="128" y="0" type="line" smooth="no"/>
    </contour>
  </outline>
</glyph>
<glyph name="m" format="1">
  <advance width="1024"/>
  <unicode hex="006d"/>
  <outline>
    <contour>
      <point x="0" y="0" type="line" smooth="no"/>
      <point x="0" y="768" type="line" smooth="no"/>
      <point x="347" y="768" type="line" smooth="no"/>
      <point x="448" y="667" type="line" smooth="no"/>
      <point x="549" y="768" type="line" smooth="no"/>
      <point x="731" y="768" type="line" smooth="no"/>
      <point x="896" y="603" type="line" smooth="no"/>
      <point x="896" y="0" type="line" smooth="no"/>
      <point x="768" y="0" type="line" smooth="no"/>
      <point x="768" y="549" type="line" smooth="no"/>
      <point x="677" y="640" type="line" smooth="no"/>
      <point x="603" y="640" type="line" smooth="no"/>
      <point x="512" y="549" type="line" smooth="no"/>
      <point x="512" y="0" type="line" smooth="no"/>
      <point x="384" y="0" type="line" smooth="no"/>
      <point x="384" y="549" type="line" smooth="no"/>
      <point x="293" y="640" type="line" smooth="no"/>
      <point x="128" y="640" type="line" smooth="no"/>
      <point x="128" y="0" type="line" smooth="no"/>
    </contour>
  </outline>
</glyph>
<glyph name="r" format="1">
  <advance width="768"/>
  <unicode hex="0072"/>
  <outline>
    <contour>
      <point x="0" y="0" type="line" smooth="no"/>
      <point x="0" y="768" type="line" smooth="no"/>
      <point x="475" y="768" type="line" smooth="no"/>
      <point x="640" y="603" type="line" smooth="no"/>
      <point x="549" y="512" type="line" smooth="no"/>
      <point x="421" y="640" type="line" smooth="no"/>
      <point x="128" y="640" type="line" smooth="no"/>
      <point x="128" y="0" type="line" smooth="no"/>
    </contour>
  </outline>
</glyph>
<glyph name="x" format="1">
  <advance width="640"/>
  <unicode hex="0078"/>
  <outline>
    <contour>
      <point x="0" y="0" type="line" smooth="no"/>
      <point x="0" y="219" type="line" smooth="no"/>
      <point x="165" y="384" type="line" smooth="no"/>
      <point x="0" y="549" type="line" smooth="no"/>
      <point x="0" y="768" type="line" smooth="no"/>
      <point x="128" y="768" type="line" smooth="no"/>
      <point x="128" y="603" type="line" smooth="no"/>
      <point x="256" y="475" type="line" smooth="no"/>
      <point x="384" y="603" type="line" smooth="no"/>
      <point x="384" y="768" type="line" smooth="no"/>
      <point x="512" y="768" type="line" smooth="no"/>
      <point x="512" y="549" type="line" smooth="no"/>
      <point x="347" y="384" type="line" smooth="no"/>
      <point x="512" y="219" type="line" smooth="no"/>
      <point x="512" y="0" type="line" smooth="no"/>
      <point x="384" y="0" type="line" smooth="no"/>
      <point x="384" y="165" type="line" smooth="no"/>
      <point x="256" y="293" type="line" smooth="no"/>
      <point x="128" y="165" type="line" smooth="no"/>
      <point x="128" y="0" type="line" smooth="no"/>
    </contour>
  </outline>
</glyph>
<glyph name="z" format="1">
  <advance width="640"/>
  <unicode hex="007a"/>
  <outline>
    <contour>
      <point x="0" y="0" type="line" smooth="no"/>
      <point x="0" y="219" type="line" smooth="no"/>
      <point x="384" y="603" type="line" smooth="no"/>
      <point x="384" y="640" type="line" smooth="no"/>
      <point x="0" y="640" type="line" smooth="no"/>
      <point x="0" y="768" type="line" smooth="no"/>
      <point x="512" y="768" type="line" smooth="no"/>
      <point x="512" y="549" type="line" smooth="no"/>
      <point x="128" y="165" type="line" smooth="no"/>
      <point x="128" y="128" type="line" smooth="no"/>
      <point x="512" y="128" type="line" smooth="no"/>
      <point x="512" y="0" type="line" smooth="no"/>
    </contour>
  </outline>
</glyph>
<glyph name="braceleft" format="1">
  <advance width="640"/>
  <unicode hex="007b"/>
  <outline>
    <contour>
      <point x="293" y="-256" type="line" smooth="no"/>
      <point x="128" y="-91" type="line" smooth="no"/>
      <point x="128" y="293" type="line" smooth="no"/>
      <point x="-27" y="448" type="line" smooth="no"/>
      <point x="128" y="603" type="line" smooth="no"/>
      <point x="128" y="987" type="line" smooth="no"/>
      <point x="293" y="1152" type="line" smooth="no"/>
      <point x="512" y="1152" type="line" smooth="no"/>
      <point x="512" y="1024" type="line" smooth="no"/>
      <point x="347" y="1024" type="line" smooth="no"/>
      <point x="256" y="933" type="line" smooth="no"/>
      <point x="256" y="549" type="line" smooth="no"/>
      <point x="155" y="448" type="line" smooth="no"/>
      <point x="256" y="347" type="line" smooth="no"/>
      <point x="256" y="-37" type="line" smooth="no"/>
      <point x="347" y="-128" type="line" smooth="no"/>
      <point x="512" y="-128" type="line" smooth="no"/>
      <point x="512" y="-256" type="line" smooth="no"/>
    </contour>
  </outline>
</glyph>
<glyph name="braceright" format="1">
  <advance width="640"/>
  <unicode hex="007d"/>
  <outline>
    <contour>
      <point x="0" y="-256" type="line" smooth="no"/>
      <point x="0" y="-128" type="line" smooth="no"/>
      <point x="165" y="-128" type="line" smooth="no"/>
      <point x="256" y="-37" type="line" smooth="no"/>
      <point x="256" y="347" type="line" smooth="no"/>
      <point x="357" y="448" type="line" smooth="no"/>
      <point x="256" y="549" type="line" smooth="no"/>
      <point x="256" y="933" type="line" smooth="no"/>
      <point x="165" y="1024" type="line" smooth="no"/>
      <point x="0" y="1024" type="line" smooth="no"/>
      <point x="0" y="1152" type="line" smooth="no"/>
      <point x="219" y="1152" type="line" smooth="no"/>
      <point x="384" y="987" type="line" smooth="no"/>
      <point x="384" y="603" type="line" smooth="no"/>
      <point x="539" y="448" type="line" smooth="no"/>
      <point x="384" y="293" type="line" smooth="no"/>
      <point x="384" y="-91" type="line" smooth="no"/>
      <point x="219" y="-256" type="line" smooth="no"/>
    </contour>
  </outline>
</glyph>
